<svg width="254" height="189" viewBox="0 0 254 189" fill="none" xmlns="http://www.w3.org/2000/svg">
<path d="M19.9714 137.292C19.6565 137.349 19.4991 137.378 19.1842 137.435C18.0536 137.477 17.6248 136.904 18.0836 135.845C18.715 133.943 20.033 132.241 21.594 130.983C27.3941 126.194 33.8089 122.106 40.1232 118.362C41.2973 117.662 41.7846 116.761 42.4294 115.831C45.8544 110.496 48.7785 105.089 51.3022 99.267C54.4288 91.3845 57.341 83.2155 58.5933 74.8591C59.3852 69.3501 59.7048 63.9266 60.1818 58.4745C60.5013 53.051 60.3201 47.5555 59.7954 41.9595C59.5976 39.0685 59.5572 36.1491 59.016 33.1577C58.9875 33.0002 58.9305 32.6853 58.902 32.5279C59.103 31.8411 58.5887 30.796 59.3759 30.6536C60.0057 30.5396 60.0761 31.8277 60.1901 32.4574C60.8017 36.7369 61.2274 40.8874 61.3667 45.2524C61.4491 49.3024 61.5314 53.3524 61.2704 57.302C61.0529 60.5933 60.9643 63.6987 60.7183 66.8325C60.3283 70.968 59.6235 75.1605 58.8901 79.1955C57.9408 84.733 56.1188 89.9406 54.1393 95.1766C52.1599 100.413 49.9945 105.52 47.2714 110.24C46.4256 111.856 45.3655 113.186 44.4912 114.645C44.2333 115.017 43.8179 115.417 44.2183 115.833C44.4327 116.119 44.8481 115.719 45.1345 115.504C49.6014 113.233 54.0684 110.961 58.5638 108.847C63.3741 106.676 68.3989 104.792 73.2092 102.62C76.6595 101.021 79.9809 99.6068 83.6456 98.2934C89.6435 96.3952 95.5274 93.8673 101.74 92.2556C103.601 91.7563 105.647 91.386 107.423 90.4144C107.996 89.9856 109.155 90.1011 109.97 90.1161C110.285 90.0592 110.815 90.2886 110.871 90.6035C110.828 91.2617 110.485 91.1613 110.041 91.4042C101.911 93.2003 94.1089 95.9126 86.1782 98.8108C79.7649 101.109 73.4371 103.88 67.0808 106.493C63.602 107.936 60.1232 109.378 56.6729 110.978C53.4086 112.707 50.1442 114.436 46.8798 116.164C45.3908 116.921 43.9018 117.679 42.5988 118.565C41.5537 119.079 40.8519 119.694 40.3645 120.595C38.3297 123.727 35.866 126.287 33.2164 128.717C29.736 131.949 26.1987 134.865 21.8038 136.636C21.5174 136.85 21.2025 136.907 20.9161 137.121C20.6012 137.178 20.2863 137.235 19.9714 137.292ZM20.4018 136.076C20.8741 135.991 21.6328 135.691 22.2341 135.42C25.656 133.662 28.5485 131.676 31.327 129.059C33.5328 126.872 35.7101 124.526 37.7015 122.052C37.9879 121.838 38.4317 121.595 38.1888 121.151C37.8169 120.893 37.4016 121.294 37.1152 121.508C34.4806 123.123 31.8745 124.895 29.2684 126.667C26.1179 129.026 22.9105 131.07 20.3748 134.13C19.9595 134.53 19.5441 134.931 19.5006 135.589C19.4286 136.09 19.643 136.376 20.4018 136.076ZM81.6302 76.5447C80.5281 76.7441 78.9402 76.0558 78.4544 75.1681C77.9971 74.4379 77.9702 72.4916 78.486 71.7479C78.7439 71.376 79.1878 71.1331 79.5596 71.391C80.0889 71.6205 79.831 71.9923 79.7305 72.3357C79.4006 73.2084 78.9702 74.4244 80.0573 75.0407C81.1444 75.657 81.9751 74.8564 82.8343 74.2131C83.4072 73.7843 83.794 73.2265 84.2094 72.8262C84.6248 72.4258 84.5678 72.1109 83.9095 72.0674C82.9649 72.2383 81.9347 71.9369 81.6064 71.0207C81.278 70.1046 82.1088 69.3039 82.782 68.5317C84.4435 66.9303 86.2893 67.2467 87.4468 69.1511C87.6897 69.5949 87.9326 70.0388 88.405 69.9533C90.3513 69.9264 92.3695 69.3986 94.4163 69.0283C95.0461 68.9144 95.8048 68.6145 96.5921 68.4721C96.7495 68.4436 97.1933 68.2007 97.2788 68.6731C97.3358 68.9879 97.0209 69.0449 96.7345 69.2593C93.8 70.1154 91.08 71.2579 88.2895 71.1124C87.4738 71.0974 86.9294 71.6837 86.5711 72.3989C85.6968 73.8578 84.5797 74.8729 83.2766 75.7591C82.7038 76.1879 82.26 76.4308 81.6302 76.5447ZM99.2392 78.3994C96.7201 78.8552 94.8038 77.2507 95.1638 74.7466C95.4517 72.7434 95.9256 70.869 96.2421 69.0232C96.443 68.3365 96.6725 67.8072 97.5166 67.9796C98.0459 68.2091 98.0024 68.8673 97.773 69.3966C97.4851 71.3999 96.7248 73.4886 96.7802 75.5924C96.7217 77.0663 97.2794 77.4532 98.8539 77.1684C100.4 76.7261 101.646 75.525 102.92 74.4815C104.481 73.2235 104.239 72.7796 105.371 70.9488C105.758 70.391 105.858 70.0476 105.114 69.5318C104.371 69.016 104.228 68.2288 104.716 67.3276C105.231 66.5839 105.719 65.6827 106.206 64.7816C106.564 64.0663 107.137 63.6375 108.01 63.9674C109.012 64.1114 109.469 64.8416 109.325 65.8433C109.41 66.3156 109.338 66.8164 109.08 67.1883C108.908 68.0325 109.28 68.2904 109.881 68.019C111.241 67.4477 112.63 67.0339 114.147 66.4342C116.294 65.7205 118.413 64.8494 120.56 64.1357C120.875 64.0788 121.319 63.8359 121.376 64.1507C121.648 64.752 120.989 64.7085 120.832 64.737C116.651 66.7941 112.471 68.8513 108.148 70.1212C107.361 70.2636 107.131 70.7929 106.744 71.3507C104.709 74.483 104.021 76.0709 100.628 77.9856C100.341 78.2 99.869 78.2855 99.2392 78.3994ZM106.603 68.7746C107.233 68.6607 108.352 65.8567 108.109 65.4129C107.894 65.1265 107.737 65.155 107.451 65.3694C106.777 66.1416 106.133 67.0712 105.831 68.1013C105.759 68.6022 106.131 68.8601 106.603 68.7746ZM140.803 60.636C137.18 63.08 133.372 65.395 129.506 67.3952C127.989 67.9949 126.657 68.7236 125.14 69.3234C123.751 69.7372 122.435 69.6502 121.061 69.2483C119.716 69.0038 119.202 67.9587 118.817 66.7276C118.76 66.4127 118.86 66.0693 118.989 65.8834C119.863 64.4245 120.895 62.937 122.327 61.865C123.287 60.8784 124.575 60.8079 125.404 61.7961C126.047 62.6553 125.903 63.6569 124.943 64.6435C123.955 65.4727 122.781 66.1729 121.607 66.8731C121.292 66.9301 120.82 67.0156 120.877 67.3304C120.962 67.8028 121.334 68.0607 121.677 68.1612C122.708 68.4626 123.81 68.2632 124.726 67.9348C127.632 66.9213 130.295 65.4639 133.115 63.978C135.206 62.9495 137.425 61.735 139.515 60.7064C139.959 60.4635 140.274 60.4065 140.775 60.4785L140.803 60.636ZM146.884 67.178C145.596 67.2484 144.437 67.1329 143.608 66.1447C142.75 64.9991 143.209 63.9405 143.825 62.8534C144.312 61.9523 144.771 60.8937 145.416 59.964C145.517 59.6206 145.645 59.4347 145.431 59.1483C145.088 59.0478 144.959 59.2338 144.83 59.4197C143.341 60.1769 141.852 60.9341 140.334 61.5338C139.733 61.8052 139.261 61.8906 138.602 61.8471C137.1 61.6312 136.643 60.9009 137.202 59.4989C138.321 56.695 139.997 54.2779 142.017 51.9613C142.146 51.7754 142.432 51.561 142.561 51.375C143.134 50.9462 143.635 51.0182 144.35 51.3766C144.88 51.606 144.836 52.2643 144.764 52.7651C144.391 54.296 143.831 55.698 143.272 57.1C143.171 57.4434 142.756 57.8437 143.128 58.1016C143.342 58.388 143.786 58.1451 144.073 57.9307C145.118 57.4164 146.134 56.7447 147.18 56.2304C147.781 55.959 148.411 55.8451 148.839 56.4179C149.426 56.9622 149.01 57.3626 148.623 57.9204C147.176 59.8081 145.944 61.9823 145.026 64.0995C144.797 64.6288 144.539 65.0007 144.782 65.4445C145.21 66.0173 145.84 65.9034 146.313 65.8179C148.46 65.1043 150.336 63.7893 152.026 62.3454C153.587 61.0874 155.176 59.9868 156.337 58.3134C156.724 57.7557 157.353 57.6417 157.797 57.3988C158.112 57.3418 158.27 57.3134 158.298 57.4708C158.326 57.6283 158.355 57.7857 158.226 57.9716C155.118 61.4608 152.038 65.1074 147.643 66.8781C147.328 66.9351 147.013 66.992 146.884 67.178ZM139.133 60.2877C139.921 60.1453 139.936 59.3296 140.351 58.9292C141.697 57.3848 142.329 55.482 143.146 53.7082C143.275 53.5223 143.376 53.1789 143.032 53.0784C142.846 52.9495 142.717 53.1354 142.588 53.3213C141.27 55.0232 139.895 56.4101 139.106 58.3414C138.848 58.7133 138.776 59.2141 138.704 59.7149C138.604 60.0583 138.818 60.3447 139.133 60.2877ZM111.127 173.076C109.996 173.117 108.894 173.317 107.921 173.33C103.27 173.684 100.71 171.22 100.829 166.484C100.989 162.877 102.023 159.601 103.714 156.368C106.71 150.461 110.264 144.94 114.748 140.064C119.904 134.415 125.833 129.44 131.762 124.465C135.873 121.12 140.354 118.033 144.865 115.103C145.595 114.646 146.14 114.059 146.155 113.244C146.645 108.765 147.293 104.257 147.468 99.8356C147.584 98.6765 147.542 97.5459 147.343 96.4438C147.286 96.1289 147.043 95.6851 147.515 95.5996C147.987 95.5142 148.202 95.8006 148.259 96.1154C148.616 97.1891 148.815 98.2912 148.828 99.2643C148.624 103.529 148.234 107.664 147.53 111.857C147.587 112.172 147.2 112.729 147.729 112.959C148.101 113.217 148.516 112.816 148.831 112.759C154.1 109.53 159.398 106.458 164.724 103.543C164.882 103.514 165.011 103.328 165.325 103.271C165.64 103.214 165.826 103.343 166.041 103.63C166.255 103.916 165.969 104.131 165.84 104.317C165.267 104.745 164.852 105.146 164.379 105.231C159.097 107.488 154.486 110.761 149.632 113.59C147.541 114.619 147.011 116.178 146.723 118.181C145.959 123.848 144.695 129.442 142.773 134.993C141.281 139.328 139.631 143.691 137.61 147.797C135.459 152.088 133.123 156.251 130.2 159.869C126.605 164.259 122.551 167.919 117.698 170.749C115.607 171.777 113.489 172.648 111.127 173.076ZM110.455 172.059C112.216 171.903 113.761 171.461 115.279 170.861C118.887 169.233 121.88 166.903 124.787 164.1C128.139 161.055 130.904 157.465 133.14 153.646C138.098 145.107 141.841 136.137 144.025 126.637C144.743 123.417 145.333 120.384 145.708 117.064C145.837 116.878 145.937 116.535 145.565 116.277C145.193 116.019 144.935 116.391 144.649 116.605C140.425 119.321 136.415 122.323 132.277 125.51C127.15 129.527 122.423 133.959 117.726 138.549C114.689 141.538 112.081 145.099 109.474 148.66C107.797 151.077 106.335 153.78 104.873 156.484C103.153 159.559 102.12 162.835 101.773 166.313C101.355 170.291 103.199 172.396 107.12 172.5C108.279 172.615 109.353 172.258 110.455 172.059ZM186.271 77.0435C186.715 76.8006 187.086 77.0585 187.172 77.5308C187.415 77.9747 186.942 78.0601 186.499 78.303C177.781 81.3437 169.034 84.2269 160.345 87.4249C155.163 89.3381 150.195 91.5377 145.041 93.6083C137.325 96.7929 129.851 100.421 122.592 104.336C113.529 109.065 104.653 113.923 96.0754 119.54C94.4575 120.483 93.0255 121.555 91.1931 122.212C91.0642 122.398 90.7778 122.612 90.5633 122.326C90.3489 122.039 90.7928 121.796 90.9217 121.61C91.4945 121.182 92.1963 120.567 92.9266 120.11C98.6111 116.48 104.324 113.007 110.252 109.821C117.353 105.934 124.455 102.048 131.613 98.4766C139.402 94.7912 147.404 91.3921 155.464 88.308C163.939 84.8235 172.843 81.9118 181.403 78.8997C183.078 78.2715 184.596 77.6717 186.271 77.0435ZM153.381 134.862C152.539 132.901 153.642 130.913 153.93 128.91C154.694 123.243 156.172 117.935 158.152 112.699C159.113 109.924 160.446 107.406 161.593 104.76C163.916 99.624 166.425 94.6174 168.905 89.4533C171.414 84.4467 174.237 79.3831 177.09 74.477C179.196 70.8439 181.303 67.2108 183.753 63.6781C184.914 62.0047 185.917 60.3599 187.292 58.9729C187.55 58.6011 187.966 58.2007 188.381 57.8004C189.24 57.1571 190.027 57.0147 190.929 57.5021C191.672 58.0179 191.815 58.8051 191.8 59.6208C191.711 62.7262 190.778 65.6591 189.688 68.6205C188.655 71.8968 187.436 75.0441 185.873 78.091C184.597 80.9234 183.35 83.9133 181.73 86.6452C180.598 88.4761 179.68 90.5933 178.605 92.739C177.042 95.7858 175.322 98.8611 173.788 102.065C170.261 109.533 165.647 116.384 161.219 123.363C159.442 126.124 157.637 128.727 155.517 131.387C154.585 132.531 154.44 135.321 155.326 136.624C155.941 137.326 156.599 137.37 157.358 137.07C158.746 136.656 159.863 135.641 160.823 134.654C163.158 132.281 165.307 129.778 167.613 127.247C167.742 127.061 167.971 126.532 168.343 126.79C168.715 127.048 168.3 127.448 168.013 127.663C165.707 130.194 163.773 132.982 161.652 135.642C160.693 136.629 159.704 137.458 158.502 138.001C155.939 139.115 154.108 137.983 153.381 134.862ZM190.527 58.8756C190.384 58.0883 189.698 57.8874 188.996 58.5021C187.019 60.1605 185.944 62.3062 184.655 64.1655C182.104 68.0415 179.711 71.889 177.475 75.7081C175.296 79.842 172.931 83.847 170.752 87.9809C168.373 92.8016 166.021 97.7797 163.827 102.729C161.533 108.022 159.081 113.344 157.474 118.838C156.698 121.742 156.081 124.618 155.463 127.494C155.362 127.838 155.133 128.367 155.662 128.596C156.163 128.668 156.235 128.167 156.493 127.796C158.972 124.42 161.236 120.759 163.5 117.097C167.369 111.519 170.522 105.583 173.833 99.6183C175.883 95.6703 177.905 91.5649 180.112 87.5884C183.853 80.4076 187.251 73.1263 189.591 65.3862C190.194 63.3259 190.611 61.1367 190.527 58.8756ZM170.508 131.601C169.406 131.801 167.818 131.112 167.332 130.225C166.875 129.494 166.848 127.548 167.364 126.804C167.622 126.433 168.066 126.19 168.437 126.448C168.967 126.677 168.709 127.049 168.608 127.392C168.278 128.265 167.848 129.481 168.935 130.097C170.022 130.714 170.853 129.913 171.712 129.27C172.285 128.841 172.672 128.283 173.087 127.883C173.503 127.482 173.446 127.167 172.787 127.124C171.843 127.295 170.813 126.993 170.484 126.077C170.156 125.161 170.987 124.36 171.66 123.588C173.321 121.987 175.167 122.303 176.325 124.208C176.568 124.651 176.81 125.095 177.283 125.01C179.229 124.983 181.247 124.455 183.294 124.085C183.924 123.971 184.683 123.671 185.47 123.529C185.627 123.5 186.071 123.257 186.157 123.73C186.214 124.044 185.899 124.101 185.612 124.316C182.678 125.172 179.958 126.314 177.167 126.169C176.352 126.154 175.807 126.74 175.449 127.455C174.575 128.914 173.458 129.929 172.154 130.816C171.582 131.244 171.138 131.487 170.508 131.601ZM208.951 120.093C207.276 120.722 205.63 121.507 203.955 122.136C203.038 122.464 202.308 122.921 201.364 123.092C199.789 123.377 198.858 124.521 198.113 125.794C197.324 127.725 196.55 128.841 194.803 129.97C194.073 130.427 193.157 130.756 192.155 130.612C191.125 130.31 190.252 129.98 190.025 128.721C189.911 128.091 189.696 127.805 189.152 128.391C188.894 128.763 188.479 129.163 188.192 129.377C187.075 130.393 186.073 130.249 184.958 129.475C184.586 129.217 184.343 128.773 184.415 128.272C184.659 126.927 184.718 125.453 185.277 124.051C185.507 123.522 185.736 122.993 186.451 123.351C187.167 123.709 187.224 124.024 187.023 124.711C186.535 125.612 186.549 126.585 186.376 127.43C186.276 127.773 186.147 127.959 186.49 128.059C186.676 128.188 186.805 128.002 186.934 127.816C188.209 126.773 189.297 125.6 190.071 124.485C190.458 123.927 190.902 123.684 191.46 124.071C192.146 124.272 192.232 124.744 192.002 125.274C191.544 126.332 191.743 127.434 191.914 128.379C192.028 129.009 192.4 129.267 192.815 128.866C195.006 127.494 196.252 126.293 197.27 123.833C197.342 123.332 197.128 123.046 196.784 122.945C196.041 122.429 195.612 121.856 195.627 121.041C195.642 120.225 196.343 119.61 197.188 119.783C198.032 119.955 198.876 120.128 199.362 121.015C199.69 121.931 200.348 121.975 201.107 121.675C203.569 120.904 206.003 119.976 208.336 119.392C208.494 119.363 208.651 119.335 208.809 119.306C209.123 119.249 209.882 118.949 209.996 119.579C210.11 120.209 209.266 120.036 208.951 120.093ZM229.681 115.693C226.058 118.137 222.25 120.452 218.384 122.452C216.867 123.051 215.535 123.78 214.017 124.38C212.629 124.794 211.312 124.707 209.939 124.305C208.594 124.06 208.08 123.015 207.694 121.784C207.637 121.469 207.738 121.126 207.867 120.94C208.741 119.481 209.773 117.994 211.205 116.922C212.164 115.935 213.452 115.864 214.282 116.853C214.925 117.712 214.781 118.713 213.821 119.7C212.833 120.529 211.659 121.229 210.485 121.93C210.17 121.987 209.698 122.072 209.755 122.387C209.84 122.859 210.212 123.117 210.555 123.218C211.585 123.519 212.688 123.32 213.604 122.991C216.51 121.978 219.173 120.52 221.993 119.035C224.084 118.006 226.303 116.792 228.393 115.763C228.837 115.52 229.152 115.463 229.653 115.535L229.681 115.693ZM235.762 122.235C234.474 122.305 233.315 122.189 232.485 121.201C231.628 120.056 232.087 118.997 232.703 117.91C233.19 117.009 233.649 115.95 234.294 115.021C234.394 114.677 234.523 114.491 234.309 114.205C233.966 114.104 233.837 114.29 233.708 114.476C232.219 115.233 230.73 115.991 229.212 116.59C228.611 116.862 228.139 116.947 227.48 116.904C225.978 116.688 225.521 115.957 226.08 114.555C227.199 111.752 228.875 109.334 230.895 107.018C231.024 106.832 231.31 106.618 231.439 106.432C232.012 106.003 232.513 106.075 233.228 106.433C233.757 106.663 233.714 107.321 233.642 107.822C233.268 109.353 232.709 110.755 232.15 112.157C232.049 112.5 231.634 112.9 232.006 113.158C232.22 113.445 232.664 113.202 232.95 112.987C233.996 112.473 235.012 111.801 236.057 111.287C236.659 111.016 237.288 110.902 237.717 111.474C238.304 112.019 237.888 112.419 237.501 112.977C236.054 114.865 234.822 117.039 233.904 119.156C233.674 119.685 233.417 120.057 233.659 120.501C234.088 121.074 234.718 120.96 235.19 120.874C237.338 120.161 239.214 118.846 240.903 117.402C242.464 116.144 244.054 115.043 245.215 113.37C245.601 112.812 246.231 112.698 246.675 112.455C246.99 112.398 247.147 112.37 247.176 112.527C247.204 112.685 247.233 112.842 247.104 113.028C243.995 116.517 240.915 120.164 236.52 121.935C236.206 121.992 235.891 122.049 235.762 122.235ZM228.011 115.344C228.798 115.202 228.813 114.386 229.229 113.986C230.575 112.441 231.207 110.539 232.024 108.765C232.153 108.579 232.253 108.235 231.91 108.135C231.724 108.006 231.595 108.192 231.466 108.378C230.148 110.08 228.773 111.467 227.984 113.398C227.726 113.77 227.654 114.271 227.582 114.771C227.482 115.115 227.696 115.401 228.011 115.344Z" fill="#1F3A3A"/>
</svg>
